<svg width="19" height="19" viewBox="0 0 19 19" fill="none" xmlns="http://www.w3.org/2000/svg">
<path d="M9.5 0C7.62108 0 5.78435 0.557165 4.22209 1.60104C2.65982 2.64491 1.44218 4.12861 0.723149 5.86451C0.00411622 7.6004 -0.184015 9.51054 0.182544 11.3534C0.549104 13.1962 1.45389 14.8889 2.78249 16.2175C4.11109 17.5461 5.80383 18.4509 7.64665 18.8175C9.48946 19.184 11.3996 18.9959 13.1355 18.2769C14.8714 17.5578 16.3551 16.3402 17.399 14.7779C18.4428 13.2156 19 11.3789 19 9.5C19 6.98044 17.9991 4.56408 16.2175 2.78249C14.4359 1.00089 12.0196 0 9.5 0ZM13.243 10.8884H10.8463V13.2837C10.8463 13.6408 10.7044 13.9832 10.452 14.2357C10.1995 14.4882 9.85706 14.63 9.5 14.63C9.14295 14.63 8.80051 14.4882 8.54804 14.2357C8.29556 13.9832 8.15372 13.6408 8.15372 13.2837V10.8884H5.757C5.40717 10.8772 5.07537 10.7305 4.83184 10.4791C4.5883 10.2277 4.45212 9.89141 4.45212 9.54139C4.45212 9.19138 4.5883 8.8551 4.83184 8.6037C5.07537 8.35231 5.40717 8.20553 5.757 8.19443H8.15372V5.79907C8.15372 5.44201 8.29556 5.09958 8.54804 4.8471C8.80051 4.59463 9.14295 4.45279 9.5 4.45279C9.85706 4.45279 10.1995 4.59463 10.452 4.8471C10.7044 5.09958 10.8463 5.44201 10.8463 5.79907V8.19443H13.243C13.5928 8.20553 13.9246 8.35231 14.1682 8.6037C14.4117 8.8551 14.5479 9.19138 14.5479 9.54139C14.5479 9.89141 14.4117 10.2277 14.1682 10.4791C13.9246 10.7305 13.5928 10.8772 13.243 10.8884Z" fill="white"/>
</svg>
