<svg width="30" height="40" viewBox="0 0 30 40" fill="none" xmlns="http://www.w3.org/2000/svg">
<circle cx="15.2781" cy="14.6084" r="14.6084" fill="#181059"/>
<path fill-rule="evenodd" clip-rule="evenodd" d="M17.7046 8.36183H20.8844C21.0281 8.36183 21.1659 8.4189 21.2675 8.52049C21.369 8.62207 21.4261 8.75985 21.4261 8.90352V9.94953C21.4261 10.0932 21.369 10.231 21.2675 10.3326C21.1659 10.4341 21.0281 10.4912 20.8844 10.4912H10.1032C9.95955 10.4912 9.82177 10.4341 9.72018 10.3326C9.6186 10.231 9.56152 10.0932 9.56152 9.94953V8.90352C9.56141 8.83235 9.57534 8.76186 9.60252 8.69608C9.6297 8.63031 9.6696 8.57055 9.71992 8.52023C9.77024 8.4699 9.83 8.43001 9.89578 8.40283C9.96155 8.37565 10.032 8.36171 10.1032 8.36183H13.2706V8.20884C13.2706 7.71074 13.678 7.6218 14.1796 7.6218H16.792C17.2937 7.6218 17.7046 7.71074 17.7046 8.20884V8.36183ZM11.2401 11.9304H19.7478C19.8247 11.9304 19.9006 11.9468 19.9706 11.9784C20.0406 12.01 20.1031 12.0562 20.1539 12.1138C20.2047 12.1714 20.2427 12.2392 20.2653 12.3126C20.2879 12.386 20.2947 12.4634 20.2851 12.5396L19.4134 19.1413C19.3808 19.3986 19.2555 19.6353 19.061 19.807C18.8665 19.9788 18.6162 20.0738 18.3567 20.0743H12.6312C12.3725 20.0727 12.1233 19.9772 11.9297 19.8056C11.7362 19.634 11.6115 19.3979 11.579 19.1413L10.7064 12.5396C10.697 12.4637 10.7038 12.3867 10.7262 12.3136C10.7487 12.2405 10.7863 12.1729 10.8367 12.1154C10.8871 12.0579 10.9491 12.0116 11.0186 11.9798C11.0881 11.9479 11.1636 11.931 11.2401 11.9304Z" fill="white"/>
<path d="M5.62997 31.135C6.14797 31.135 6.60064 31.2353 6.98797 31.436C7.37997 31.632 7.68097 31.9167 7.89097 32.29C8.10564 32.6587 8.21297 33.0903 8.21297 33.585C8.21297 34.0797 8.10564 34.509 7.89097 34.873C7.68097 35.237 7.37997 35.517 6.98797 35.713C6.60064 35.9043 6.14797 36 5.62997 36H4.04097V31.135H5.62997ZM5.62997 35.349C6.19931 35.349 6.63564 35.195 6.93897 34.887C7.24231 34.579 7.39397 34.145 7.39397 33.585C7.39397 33.0203 7.24231 32.5793 6.93897 32.262C6.63564 31.9447 6.19931 31.786 5.62997 31.786H4.83897V35.349H5.62997ZM12.5389 33.977C12.5389 34.1217 12.5295 34.2523 12.5109 34.369H9.56386C9.5872 34.677 9.70153 34.9243 9.90686 35.111C10.1122 35.2977 10.3642 35.391 10.6629 35.391C11.0922 35.391 11.3955 35.2113 11.5729 34.852H12.4339C12.3172 35.2067 12.1049 35.4983 11.7969 35.727C11.4935 35.951 11.1155 36.063 10.6629 36.063C10.2942 36.063 9.96286 35.9813 9.66886 35.818C9.37953 35.65 9.15086 35.4167 8.98286 35.118C8.81953 34.8147 8.73786 34.4647 8.73786 34.068C8.73786 33.6713 8.8172 33.3237 8.97586 33.025C9.1392 32.7217 9.36553 32.4883 9.65486 32.325C9.94886 32.1617 10.2849 32.08 10.6629 32.08C11.0269 32.08 11.3512 32.1593 11.6359 32.318C11.9205 32.4767 12.1422 32.7007 12.3009 32.99C12.4595 33.2747 12.5389 33.6037 12.5389 33.977ZM11.7059 33.725C11.7012 33.431 11.5962 33.1953 11.3909 33.018C11.1855 32.8407 10.9312 32.752 10.6279 32.752C10.3525 32.752 10.1169 32.8407 9.92086 33.018C9.72486 33.1907 9.6082 33.4263 9.57086 33.725H11.7059ZM14.1222 30.82V36H13.3242V30.82H14.1222ZM18.7049 33.977C18.7049 34.1217 18.6955 34.2523 18.6769 34.369H15.7299C15.7532 34.677 15.8675 34.9243 16.0729 35.111C16.2782 35.2977 16.5302 35.391 16.8289 35.391C17.2582 35.391 17.5615 35.2113 17.7389 34.852H18.5999C18.4832 35.2067 18.2709 35.4983 17.9629 35.727C17.6595 35.951 17.2815 36.063 16.8289 36.063C16.4602 36.063 16.1289 35.9813 15.8349 35.818C15.5455 35.65 15.3169 35.4167 15.1489 35.118C14.9855 34.8147 14.9039 34.4647 14.9039 34.068C14.9039 33.6713 14.9832 33.3237 15.1419 33.025C15.3052 32.7217 15.5315 32.4883 15.8209 32.325C16.1149 32.1617 16.4509 32.08 16.8289 32.08C17.1929 32.08 17.5172 32.1593 17.8019 32.318C18.0865 32.4767 18.3082 32.7007 18.4669 32.99C18.6255 33.2747 18.7049 33.6037 18.7049 33.977ZM17.8719 33.725C17.8672 33.431 17.7622 33.1953 17.5569 33.018C17.3515 32.8407 17.0972 32.752 16.7939 32.752C16.5185 32.752 16.2829 32.8407 16.0869 33.018C15.8909 33.1907 15.7742 33.4263 15.7369 33.725H17.8719ZM20.4212 32.794V34.929C20.4212 35.0737 20.4539 35.1787 20.5192 35.244C20.5892 35.3047 20.7059 35.335 20.8692 35.335H21.3592V36H20.7292C20.3699 36 20.0945 35.916 19.9032 35.748C19.7119 35.58 19.6162 35.307 19.6162 34.929V32.794H19.1612V32.143H19.6162V31.184H20.4212V32.143H21.3592V32.794H20.4212ZM25.6297 33.977C25.6297 34.1217 25.6204 34.2523 25.6017 34.369H22.6547C22.678 34.677 22.7924 34.9243 22.9977 35.111C23.203 35.2977 23.455 35.391 23.7537 35.391C24.183 35.391 24.4864 35.2113 24.6637 34.852H25.5247C25.408 35.2067 25.1957 35.4983 24.8877 35.727C24.5844 35.951 24.2064 36.063 23.7537 36.063C23.385 36.063 23.0537 35.9813 22.7597 35.818C22.4704 35.65 22.2417 35.4167 22.0737 35.118C21.9104 34.8147 21.8287 34.4647 21.8287 34.068C21.8287 33.6713 21.908 33.3237 22.0667 33.025C22.23 32.7217 22.4564 32.4883 22.7457 32.325C23.0397 32.1617 23.3757 32.08 23.7537 32.08C24.1177 32.08 24.442 32.1593 24.7267 32.318C25.0114 32.4767 25.233 32.7007 25.3917 32.99C25.5504 33.2747 25.6297 33.6037 25.6297 33.977ZM24.7967 33.725C24.792 33.431 24.687 33.1953 24.4817 33.018C24.2764 32.8407 24.022 32.752 23.7187 32.752C23.4434 32.752 23.2077 32.8407 23.0117 33.018C22.8157 33.1907 22.699 33.4263 22.6617 33.725H24.7967Z" fill="#979797"/>
</svg>
