<svg width="39" height="40" viewBox="0 0 39 40" fill="none" xmlns="http://www.w3.org/2000/svg">
<circle cx="18.6084" cy="14.6084" r="14.6084" fill="#181059"/>
<g clip-path="url(#clip0)">
<path d="M23.3651 9.32373H22.3156V10.2248H23.3651C23.7103 10.2248 23.9909 10.5054 23.9909 10.8506V19.6114C23.9909 19.9565 23.7103 20.2371 23.3651 20.2371H16.3045C15.9593 20.2371 15.6787 19.9565 15.6787 19.6114V18.8627H14.7776V19.6114C14.7776 20.4534 15.4624 21.1382 16.3045 21.1382H23.3651C24.2072 21.1382 24.892 20.4534 24.892 19.6114V10.8506C24.892 10.0086 24.2072 9.32373 23.3651 9.32373Z" fill="white"/>
<path d="M19.9611 17.9593H12.9004C12.0584 17.9593 11.3735 17.2745 11.3735 16.4324V7.67168C11.3735 6.82965 12.0584 6.14481 12.9004 6.14481H19.9611C20.8031 6.14481 21.488 6.82965 21.488 7.67168V16.4324C21.488 17.2745 20.8031 17.9593 19.9611 17.9593ZM12.9004 7.04591C12.5552 7.04591 12.2746 7.32651 12.2746 7.67168V16.4324C12.2746 16.7776 12.5552 17.0582 12.9004 17.0582H19.9611C20.3063 17.0582 20.5868 16.7776 20.5868 16.4324V7.67168C20.5868 7.32651 20.3063 7.04591 19.9611 7.04591H12.9004Z" fill="white"/>
<path d="M18.9092 9.77428H14.3286C14.0452 9.77428 13.8154 9.54449 13.8154 9.26115C13.8154 8.9778 14.0452 8.74802 14.3286 8.74802H18.9092C19.1925 8.74802 19.4223 8.9778 19.4223 9.26115C19.4223 9.54449 19.1925 9.77428 18.9092 9.77428Z" fill="#01E4FF"/>
<path d="M18.9092 12.5652H14.3286C14.0452 12.5652 13.8154 12.3354 13.8154 12.0521C13.8154 11.7687 14.0452 11.5389 14.3286 11.5389H18.9092C19.1925 11.5389 19.4223 11.7687 19.4223 12.0521C19.4223 12.3354 19.1925 12.5652 18.9092 12.5652Z" fill="#01E4FF"/>
<path d="M18.9092 15.3561H14.3286C14.0452 15.3561 13.8154 15.1263 13.8154 14.843C13.8154 14.5596 14.0452 14.3299 14.3286 14.3299H18.9092C19.1925 14.3299 19.4223 14.5596 19.4223 14.843C19.4223 15.1263 19.1925 15.3561 18.9092 15.3561Z" fill="#01E4FF"/>
</g>
<path d="M4.70873 32.135C5.22673 32.135 5.67939 32.2353 6.06673 32.436C6.45873 32.632 6.75973 32.9167 6.96973 33.29C7.18439 33.6587 7.29173 34.0903 7.29173 34.585C7.29173 35.0797 7.18439 35.509 6.96973 35.873C6.75973 36.237 6.45873 36.517 6.06673 36.713C5.67939 36.9043 5.22673 37 4.70873 37H3.11973V32.135H4.70873ZM4.70873 36.349C5.27806 36.349 5.71439 36.195 6.01773 35.887C6.32106 35.579 6.47273 35.145 6.47273 34.585C6.47273 34.0203 6.32106 33.5793 6.01773 33.262C5.71439 32.9447 5.27806 32.786 4.70873 32.786H3.91773V36.349H4.70873ZM11.5756 33.143V37H10.7776V36.545C10.6516 36.7037 10.486 36.8297 10.2806 36.923C10.08 37.0117 9.86528 37.056 9.63662 37.056C9.33328 37.056 9.06028 36.993 8.81762 36.867C8.57962 36.741 8.39062 36.5543 8.25062 36.307C8.11528 36.0597 8.04762 35.761 8.04762 35.411V33.143H8.83862V35.292C8.83862 35.6373 8.92495 35.9033 9.09762 36.09C9.27028 36.272 9.50595 36.363 9.80462 36.363C10.1033 36.363 10.339 36.272 10.5116 36.09C10.689 35.9033 10.7776 35.6373 10.7776 35.292V33.143H11.5756ZM13.4265 33.71C13.5618 33.5327 13.7462 33.3833 13.9795 33.262C14.2128 33.1407 14.4765 33.08 14.7705 33.08C15.1065 33.08 15.4122 33.164 15.6875 33.332C15.9675 33.4953 16.1868 33.7263 16.3455 34.025C16.5042 34.3237 16.5835 34.6667 16.5835 35.054C16.5835 35.4413 16.5042 35.789 16.3455 36.097C16.1868 36.4003 15.9675 36.6383 15.6875 36.811C15.4122 36.979 15.1065 37.063 14.7705 37.063C14.4765 37.063 14.2152 37.0047 13.9865 36.888C13.7578 36.7667 13.5712 36.6173 13.4265 36.44V38.834H12.6285V33.143H13.4265V33.71ZM15.7715 35.054C15.7715 34.788 15.7155 34.5593 15.6035 34.368C15.4962 34.172 15.3515 34.025 15.1695 33.927C14.9922 33.8243 14.8008 33.773 14.5955 33.773C14.3948 33.773 14.2035 33.8243 14.0215 33.927C13.8442 34.0297 13.6995 34.179 13.5875 34.375C13.4802 34.571 13.4265 34.802 13.4265 35.068C13.4265 35.334 13.4802 35.5673 13.5875 35.768C13.6995 35.964 13.8442 36.1133 14.0215 36.216C14.2035 36.3187 14.3948 36.37 14.5955 36.37C14.8008 36.37 14.9922 36.3187 15.1695 36.216C15.3515 36.1087 15.4962 35.9547 15.6035 35.754C15.7155 35.5533 15.7715 35.32 15.7715 35.054ZM18.1707 31.82V37H17.3727V31.82H18.1707ZM19.6244 32.632C19.4797 32.632 19.3584 32.583 19.2604 32.485C19.1624 32.387 19.1134 32.2657 19.1134 32.121C19.1134 31.9763 19.1624 31.855 19.2604 31.757C19.3584 31.659 19.4797 31.61 19.6244 31.61C19.7644 31.61 19.8834 31.659 19.9814 31.757C20.0794 31.855 20.1284 31.9763 20.1284 32.121C20.1284 32.2657 20.0794 32.387 19.9814 32.485C19.8834 32.583 19.7644 32.632 19.6244 32.632ZM20.0164 33.143V37H19.2184V33.143H20.0164ZM20.7981 35.068C20.7981 34.6713 20.8774 34.3237 21.0361 34.025C21.1994 33.7217 21.4234 33.4883 21.7081 33.325C21.9927 33.1617 22.3194 33.08 22.6881 33.08C23.1547 33.08 23.5397 33.192 23.8431 33.416C24.1511 33.6353 24.3587 33.9503 24.4661 34.361H23.6051C23.5351 34.1697 23.4231 34.0203 23.2691 33.913C23.1151 33.8057 22.9214 33.752 22.6881 33.752C22.3614 33.752 22.1001 33.8687 21.9041 34.102C21.7127 34.3307 21.6171 34.6527 21.6171 35.068C21.6171 35.4833 21.7127 35.8077 21.9041 36.041C22.1001 36.2743 22.3614 36.391 22.6881 36.391C23.1501 36.391 23.4557 36.188 23.6051 35.782H24.4661C24.3541 36.174 24.1441 36.4867 23.8361 36.72C23.5281 36.9487 23.1454 37.063 22.6881 37.063C22.3194 37.063 21.9927 36.9813 21.7081 36.818C21.4234 36.65 21.1994 36.4167 21.0361 36.118C20.8774 35.8147 20.7981 35.4647 20.7981 35.068ZM24.9953 35.054C24.9953 34.6667 25.0747 34.3237 25.2333 34.025C25.3967 33.7263 25.616 33.4953 25.8913 33.332C26.1713 33.164 26.4793 33.08 26.8153 33.08C27.1187 33.08 27.3823 33.1407 27.6063 33.262C27.835 33.3787 28.017 33.5257 28.1523 33.703V33.143H28.9573V37H28.1523V36.426C28.017 36.608 27.8327 36.7597 27.5993 36.881C27.366 37.0023 27.1 37.063 26.8013 37.063C26.47 37.063 26.1667 36.979 25.8913 36.811C25.616 36.6383 25.3967 36.4003 25.2333 36.097C25.0747 35.789 24.9953 35.4413 24.9953 35.054ZM28.1523 35.068C28.1523 34.802 28.0963 34.571 27.9843 34.375C27.877 34.179 27.7347 34.0297 27.5573 33.927C27.38 33.8243 27.1887 33.773 26.9833 33.773C26.778 33.773 26.5867 33.8243 26.4093 33.927C26.232 34.025 26.0873 34.172 25.9753 34.368C25.868 34.5593 25.8143 34.788 25.8143 35.054C25.8143 35.32 25.868 35.5533 25.9753 35.754C26.0873 35.9547 26.232 36.1087 26.4093 36.216C26.5913 36.3187 26.7827 36.37 26.9833 36.37C27.1887 36.37 27.38 36.3187 27.5573 36.216C27.7347 36.1133 27.877 35.964 27.9843 35.768C28.0963 35.5673 28.1523 35.334 28.1523 35.068ZM30.9365 33.794V35.929C30.9365 36.0737 30.9691 36.1787 31.0345 36.244C31.1045 36.3047 31.2211 36.335 31.3845 36.335H31.8745V37H31.2445C30.8851 37 30.6098 36.916 30.4185 36.748C30.2271 36.58 30.1315 36.307 30.1315 35.929V33.794H29.6765V33.143H30.1315V32.184H30.9365V33.143H31.8745V33.794H30.9365ZM36.145 34.977C36.145 35.1217 36.1356 35.2523 36.117 35.369H33.17C33.1933 35.677 33.3076 35.9243 33.513 36.111C33.7183 36.2977 33.9703 36.391 34.269 36.391C34.6983 36.391 35.0016 36.2113 35.179 35.852H36.04C35.9233 36.2067 35.711 36.4983 35.403 36.727C35.0996 36.951 34.7216 37.063 34.269 37.063C33.9003 37.063 33.569 36.9813 33.275 36.818C32.9856 36.65 32.757 36.4167 32.589 36.118C32.4256 35.8147 32.344 35.4647 32.344 35.068C32.344 34.6713 32.4233 34.3237 32.582 34.025C32.7453 33.7217 32.9716 33.4883 33.261 33.325C33.555 33.1617 33.891 33.08 34.269 33.08C34.633 33.08 34.9573 33.1593 35.242 33.318C35.5266 33.4767 35.7483 33.7007 35.907 33.99C36.0656 34.2747 36.145 34.6037 36.145 34.977ZM35.312 34.725C35.3073 34.431 35.2023 34.1953 34.997 34.018C34.7916 33.8407 34.5373 33.752 34.234 33.752C33.9586 33.752 33.723 33.8407 33.527 34.018C33.331 34.1907 33.2143 34.4263 33.177 34.725H35.312Z" fill="#979797"/>
<defs>
<clipPath id="clip0">
<rect width="13.5186" height="14.9934" fill="white" transform="translate(11.3735 6.14481)"/>
</clipPath>
</defs>
</svg>
