<svg width="30" height="38" viewBox="0 0 30 38" fill="none" xmlns="http://www.w3.org/2000/svg">
<path d="M8.95923 12.9595H22.3985V26.3987H8.95923V12.9595Z" fill="#181059"/>
<path d="M9.323 32.779V34.207H11.003V34.858H9.323V36.349H11.213V37H8.525V32.128H11.213V32.779H9.323ZM11.9299 35.054C11.9299 34.6667 12.0092 34.3237 12.1679 34.025C12.3312 33.7263 12.5506 33.4953 12.8259 33.332C13.1059 33.164 13.4162 33.08 13.7569 33.08C14.0089 33.08 14.2562 33.136 14.4989 33.248C14.7462 33.3553 14.9422 33.5 15.0869 33.682V31.82H15.8919V37H15.0869V36.419C14.9562 36.6057 14.7742 36.7597 14.5409 36.881C14.3122 37.0023 14.0486 37.063 13.7499 37.063C13.4139 37.063 13.1059 36.979 12.8259 36.811C12.5506 36.6383 12.3312 36.4003 12.1679 36.097C12.0092 35.789 11.9299 35.4413 11.9299 35.054ZM15.0869 35.068C15.0869 34.802 15.0309 34.571 14.9189 34.375C14.8116 34.179 14.6692 34.0297 14.4919 33.927C14.3146 33.8243 14.1232 33.773 13.9179 33.773C13.7126 33.773 13.5212 33.8243 13.3439 33.927C13.1666 34.025 13.0219 34.172 12.9099 34.368C12.8026 34.5593 12.7489 34.788 12.7489 35.054C12.7489 35.32 12.8026 35.5533 12.9099 35.754C13.0219 35.9547 13.1666 36.1087 13.3439 36.216C13.5259 36.3187 13.7172 36.37 13.9179 36.37C14.1232 36.37 14.3146 36.3187 14.4919 36.216C14.6692 36.1133 14.8116 35.964 14.9189 35.768C15.0309 35.5673 15.0869 35.334 15.0869 35.068ZM17.346 32.632C17.2014 32.632 17.08 32.583 16.982 32.485C16.884 32.387 16.835 32.2657 16.835 32.121C16.835 31.9763 16.884 31.855 16.982 31.757C17.08 31.659 17.2014 31.61 17.346 31.61C17.486 31.61 17.605 31.659 17.703 31.757C17.801 31.855 17.85 31.9763 17.85 32.121C17.85 32.2657 17.801 32.387 17.703 32.485C17.605 32.583 17.486 32.632 17.346 32.632ZM17.738 33.143V37H16.94V33.143H17.738ZM19.7167 33.794V35.929C19.7167 36.0737 19.7494 36.1787 19.8147 36.244C19.8847 36.3047 20.0014 36.335 20.1647 36.335H20.6547V37H20.0247C19.6654 37 19.3901 36.916 19.1987 36.748C19.0074 36.58 18.9117 36.307 18.9117 35.929V33.794H18.4567V33.143H18.9117V32.184H19.7167V33.143H20.6547V33.794H19.7167Z" fill="#979797"/>
<circle cx="14.6084" cy="14.6084" r="14.6084" fill="#181059"/>
<path fill-rule="evenodd" clip-rule="evenodd" d="M16.9117 9.22331L9.83061 16.3857L8.85066 20.8935C8.80204 21.1159 8.81012 21.347 8.87416 21.5655C8.9382 21.784 9.05614 21.9829 9.21714 22.1439C9.37815 22.3049 9.57704 22.4228 9.79554 22.4869C10.014 22.5509 10.2451 22.559 10.4676 22.5104L14.9753 21.5304L22.0662 14.3563C22.3188 14.1009 22.4601 13.756 22.4592 13.3969C22.4582 13.0377 22.3152 12.6935 22.0613 12.4395L18.8402 9.21743C18.7134 9.09077 18.5629 8.99041 18.3972 8.92211C18.2315 8.85382 18.0539 8.81895 17.8747 8.81949C17.6955 8.82004 17.5182 8.856 17.3529 8.9253C17.1876 8.9946 17.0377 9.09588 16.9117 9.22331ZM11.5318 21.0346L10.3225 19.8263L10.9399 16.9913L14.3697 20.4211L11.5318 21.0346Z" fill="white"/>
</svg>
