<svg width="38" height="40" viewBox="0 0 38 40" fill="none" xmlns="http://www.w3.org/2000/svg">
<path d="M9.96399 33.51C9.96399 31.43 8.39399 29.96 6.41399 29.96C4.45399 29.96 2.86399 31.43 2.86399 33.51C2.86399 35.6 4.45399 37.07 6.41399 37.07C8.39399 37.07 9.96399 35.6 9.96399 33.51ZM4.03399 33.51C4.03399 31.94 5.03399 30.96 6.41399 30.96C7.79399 30.96 8.79399 31.94 8.79399 33.51C8.79399 35.08 7.79399 36.08 6.41399 36.08C5.03399 36.08 4.03399 35.08 4.03399 33.51ZM12.4258 34.1C12.4258 32.93 12.9458 32.58 13.7858 32.58H14.0758V31.4C13.2958 31.4 12.7458 31.74 12.4258 32.29V31.49H11.2858V37H12.4258V34.1ZM14.9437 34.22C14.9437 35.92 16.0937 37.09 17.5437 37.09C18.4437 37.09 19.1037 36.67 19.4537 36.17V37H20.6037V29.6H19.4537V32.26C19.0337 31.74 18.2737 31.4 17.5537 31.4C16.0937 31.4 14.9437 32.52 14.9437 34.22ZM19.4537 34.24C19.4537 35.43 18.6437 36.1 17.7837 36.1C16.9337 36.1 16.1137 35.41 16.1137 34.22C16.1137 33.03 16.9337 32.39 17.7837 32.39C18.6437 32.39 19.4537 33.06 19.4537 34.24ZM24.621 32.36C25.471 32.36 26.141 32.9 26.161 33.75H23.111C23.231 32.88 23.851 32.36 24.621 32.36ZM27.201 35.36H25.971C25.761 35.79 25.371 36.13 24.671 36.13C23.831 36.13 23.181 35.58 23.101 34.67H27.311C27.341 34.48 27.351 34.3 27.351 34.11C27.351 32.49 26.241 31.4 24.671 31.4C23.041 31.4 21.921 32.51 21.921 34.24C21.921 35.97 23.091 37.09 24.671 37.09C26.021 37.09 26.891 36.32 27.201 35.36ZM29.8129 34.1C29.8129 32.93 30.3329 32.58 31.1729 32.58H31.4629V31.4C30.6829 31.4 30.1329 31.74 29.8129 32.29V31.49H28.6729V37H29.8129V34.1ZM36.8208 35.46C36.7608 33.47 33.6508 34.09 33.6508 32.98C33.6508 32.61 33.9708 32.36 34.5808 32.36C35.2008 32.36 35.5708 32.69 35.6108 33.17H36.7508C36.6908 32.07 35.8708 31.4 34.6208 31.4C33.3208 31.4 32.5008 32.11 32.5008 32.99C32.5008 35.01 35.7008 34.39 35.7008 35.47C35.7008 35.85 35.3508 36.13 34.6908 36.13C34.0608 36.13 33.6308 35.76 33.5908 35.31H32.4108C32.4608 36.31 33.3908 37.09 34.7108 37.09C36.0108 37.09 36.8208 36.39 36.8208 35.46Z" fill="#666666"/>
<path d="M36.9219 7.05928C35.9275 5.20445 34.4519 3.67007 32.5385 2.49761C29.5967 0.693676 26.2529 0.160224 24.5226 0C24.5207 0 24.5207 0.00188499 24.5188 0.00188499C24.498 0 24.4754 0.00188499 24.4527 0.00188499C24.4301 0.00188499 24.4074 0 24.3867 0.00376998C24.3848 0.00376998 24.3848 0.00376998 24.3829 0.00376998C24.3584 0.00565496 24.3357 0.0131949 24.3112 0.0188499C24.2942 0.0226199 24.2754 0.0245048 24.2584 0.0301598C24.2301 0.0395847 24.2037 0.0527797 24.1772 0.0659746C24.1659 0.0716295 24.1527 0.0753995 24.1414 0.0810545C24.1168 0.0961344 24.0923 0.113099 24.0697 0.130064C24.0584 0.139489 24.047 0.145144 24.0357 0.154569C24.0168 0.171534 23.9999 0.190384 23.9829 0.207349C23.9716 0.220544 23.9583 0.231854 23.947 0.245048C23.9338 0.263898 23.9225 0.282748 23.9093 0.301598C23.8998 0.318563 23.8866 0.333643 23.8772 0.352493C23.8659 0.373228 23.8583 0.395847 23.8508 0.416582C23.8432 0.435432 23.8338 0.452397 23.8281 0.471247C23.8206 0.499522 23.8168 0.531567 23.8112 0.561726C23.8093 0.573036 23.8055 0.584346 23.8036 0.597541V0.599426C23.8017 0.622046 23.8055 0.644666 23.8055 0.667286C23.8055 0.689906 23.8036 0.712525 23.8055 0.735145C23.8055 0.73703 23.8055 0.73703 23.8074 0.73703C23.8319 0.948149 23.8451 1.16304 23.8451 1.37227C23.8451 4.31662 21.4468 6.71056 18.4993 6.71056C15.5518 6.71056 13.1535 4.31662 13.1535 1.37227C13.1535 1.16304 13.1667 0.948149 13.1931 0.73703C13.1931 0.73703 13.1931 0.73703 13.1931 0.735145C13.195 0.712525 13.1931 0.689906 13.1931 0.667286C13.1931 0.644666 13.1969 0.622046 13.195 0.599426V0.597541C13.1931 0.584346 13.1893 0.573036 13.1874 0.559841C13.1818 0.529682 13.178 0.499522 13.1705 0.471247C13.1629 0.450512 13.1535 0.431662 13.1459 0.410927C13.1384 0.392078 13.1308 0.371343 13.1214 0.354378C13.1101 0.331758 13.0969 0.311023 13.0818 0.290288C13.0723 0.277093 13.0629 0.260128 13.0535 0.246933C13.0384 0.228084 13.0214 0.213004 13.0044 0.196039C12.9912 0.182844 12.978 0.167764 12.9648 0.156454C12.9478 0.141374 12.9308 0.131949 12.9138 0.118754C12.895 0.107444 12.878 0.0942494 12.8591 0.0829395C12.8402 0.0735145 12.8214 0.0659746 12.8025 0.0565496C12.7817 0.0490097 12.7629 0.0376998 12.7421 0.0320448C12.7176 0.0226199 12.693 0.0188499 12.6685 0.0150799C12.6515 0.0113099 12.6345 0.00565496 12.6157 0.00376998C12.6138 0.00376998 12.6138 0.00376998 12.6138 0.00376998C12.5949 0 12.576 0.00188499 12.5572 0.00188499C12.5308 0.00188499 12.5043 -0.00188499 12.4779 0.00188499L12.476 0C10.7457 0.160224 7.40194 0.693676 4.46013 2.49761C2.54672 3.67007 1.0711 5.20445 0.0785475 7.05928C-0.0667503 7.32883 -0.00636681 7.66436 0.225732 7.86605C0.354047 7.97915 3.32982 10.5597 6.81508 11.9037L7.03586 12.6332C7.0453 12.6615 7.05662 12.686 7.06794 12.7124L10.2532 23.0308C10.089 23.2174 9.86634 23.4907 9.60027 23.8639H19.873C19.4673 23.4568 19.0956 23.0157 18.7654 22.5445H11.4854L7.9869 11.2081C7.98313 11.1987 7.97747 11.1893 7.97369 11.1799L5.59043 3.36659C7.80764 2.12438 10.2211 1.61166 11.8326 1.40055C11.8496 5.05931 14.8329 8.03005 18.4993 8.03005C22.1657 8.03005 25.149 5.05931 25.166 1.40055C26.7775 1.61166 29.191 2.12438 31.41 3.36659L30.1646 7.44759C30.5854 7.59273 30.9949 7.76427 31.3874 7.96407L32.5668 4.10173C33.7763 4.96694 34.7576 6.00746 35.4897 7.21573C35.001 7.60593 34.1122 8.28452 33.0008 8.98197C33.365 9.26095 33.7084 9.56631 34.0292 9.89619C35.6199 8.86698 36.6974 7.93391 36.7729 7.86605C37.005 7.66436 37.0653 7.32883 36.9219 7.05928ZM6.30937 10.2524C4.16764 9.25341 2.30519 7.85474 1.50888 7.21573C2.24103 6.00746 3.22226 4.96694 4.43371 4.10173L6.30937 10.2524ZM31.6988 9.7435C31.3723 9.92069 31.0345 10.0922 30.6892 10.2524L30.9779 9.30619L30.9798 9.30241C30.6232 9.11203 30.2514 8.94238 29.8646 8.80289C29.8306 8.79158 29.7967 8.77839 29.7627 8.76708L29.0645 11.0555L29.0268 11.1761C29.023 11.1874 29.0155 11.1968 29.0117 11.2081L28.6437 12.4032L28.5984 12.5465L27.0719 17.4927L26.619 18.963L25.9906 20.9969L25.5132 22.5445H20.5221C20.9618 23.0402 21.46 23.4832 22.0053 23.8639H27.3983C27.1323 23.4907 26.9096 23.2174 26.7454 23.0308L27.0473 22.0506L27.6757 20.0186L29.2042 15.0667L29.6193 13.7189L29.9288 12.718C29.942 12.6916 29.9533 12.6633 29.9627 12.6332L30.0325 12.4032L30.1854 11.9037C30.4986 11.7831 30.8081 11.6511 31.1119 11.5135C31.7063 11.2421 32.2781 10.9442 32.814 10.637C32.8158 10.637 32.8177 10.6351 32.8177 10.6351C32.4724 10.3071 32.0988 10.0074 31.7025 9.74162C31.7006 9.74162 31.7006 9.7435 31.6988 9.7435Z" fill="#666666"/>
<path d="M35.4887 16.8461C35.4887 17.0686 35.4793 17.2872 35.4642 17.5059C35.4472 17.7226 35.4227 17.9375 35.3906 18.1487C35.3793 18.2203 35.3661 18.2919 35.3547 18.3617C35.317 18.5728 35.2717 18.7782 35.2189 18.9837C35.217 18.9856 35.2189 18.9875 35.2189 18.9875C35.166 19.191 35.1057 19.3927 35.0377 19.5907C35.0377 19.5907 35.0377 19.5907 35.0377 19.5926C35.0019 19.6981 34.9641 19.8037 34.9245 19.9073C34.732 20.4106 34.4924 20.8894 34.2131 21.3418C33.8772 21.8847 33.4829 22.388 33.0375 22.8385C31.4826 24.4257 29.3145 25.4096 26.9161 25.4096C26.5746 25.4096 26.2387 25.3889 25.9066 25.3493C25.7953 25.3361 25.6858 25.321 25.5764 25.3041C25.5764 25.3022 25.5745 25.3022 25.5726 25.3041C25.4084 25.2777 25.2481 25.2475 25.0858 25.2136C23.9611 24.9685 22.9176 24.5048 22.0043 23.8639C21.459 23.4832 20.9608 23.0402 20.5212 22.5444C20.0532 22.0223 19.6513 21.4436 19.3229 20.8197C19.2135 20.6104 19.1116 20.3974 19.0191 20.1788C19.021 20.1769 19.021 20.1769 19.0191 20.1769C18.938 19.9846 18.8644 19.7905 18.7964 19.5926C18.7738 19.5247 18.753 19.4568 18.7304 19.3909C18.6908 19.257 18.6512 19.1232 18.6153 18.9875C18.4398 18.3032 18.3455 17.585 18.3455 16.8461C18.3455 16.1072 18.4398 15.389 18.6153 14.7048C18.6512 14.5691 18.6908 14.4352 18.7304 14.3014C18.7738 14.1676 18.8191 14.0337 18.8663 13.9018C18.9134 13.7717 18.9644 13.6416 19.0191 13.5153V13.5135C19.1286 13.2571 19.2474 13.0083 19.3814 12.767C19.3814 12.767 19.3814 12.767 19.3814 12.7651C19.4814 12.5842 19.5852 12.407 19.6965 12.2336C19.6965 12.2317 19.6965 12.2317 19.6965 12.2317C19.8343 12.0149 19.9852 11.8038 20.1438 11.6021C20.1966 11.5342 20.2494 11.4683 20.3041 11.4023C20.3041 11.4004 20.3041 11.4004 20.3041 11.4004C20.3928 11.2948 20.4834 11.1912 20.574 11.0913C20.574 11.0894 20.574 11.0894 20.574 11.0894C20.6325 11.0253 20.691 10.9631 20.7495 10.9028C20.8099 10.8406 20.8702 10.7802 20.9325 10.7199C20.9929 10.6615 21.0552 10.6012 21.1193 10.5427C21.2137 10.456 21.3099 10.3712 21.4099 10.2883C22.0968 9.70767 22.8799 9.23454 23.7253 8.89713C23.8064 8.86508 23.8875 8.83304 23.9706 8.80288C24.0366 8.78026 24.1027 8.75576 24.1706 8.73314C24.3687 8.66528 24.5706 8.60496 24.7744 8.55218H24.7763C24.982 8.4994 25.1896 8.45416 25.399 8.41646C25.4707 8.40515 25.5405 8.39195 25.6122 8.38064C25.8255 8.3486 26.0406 8.32409 26.2576 8.30713C26.4746 8.29016 26.6954 8.28262 26.9161 8.28262C27.1388 8.28262 27.3577 8.29205 27.5766 8.30713C27.7936 8.32409 28.0087 8.3486 28.2201 8.38064C28.2918 8.39195 28.3635 8.40515 28.4333 8.41646C28.6446 8.45416 28.8503 8.4994 29.056 8.55218C29.0579 8.55406 29.0598 8.55218 29.0598 8.55218C29.2636 8.60496 29.4655 8.66528 29.6636 8.73314C29.6957 8.74445 29.7278 8.75576 29.7617 8.76707C29.7957 8.77838 29.8297 8.79157 29.8636 8.80288C30.2504 8.94237 30.6222 9.11202 30.9788 9.3024C31.2279 9.43812 31.4694 9.58327 31.7015 9.7416C32.0978 10.0074 32.4714 10.3071 32.8167 10.6351C33.4432 11.2289 33.9791 11.9169 34.4037 12.6746C34.4358 12.7331 34.4679 12.7934 34.4999 12.8518C34.5622 12.9706 34.6226 13.0893 34.6792 13.2119V13.2138C34.7868 13.4381 34.8811 13.668 34.9679 13.9018C34.9906 13.9696 35.0151 14.0356 35.0377 14.1016C35.1057 14.2995 35.166 14.5012 35.2189 14.7048C35.2189 14.7048 35.217 14.7067 35.2189 14.7085C35.2717 14.914 35.317 15.1195 35.3547 15.3306C35.3661 15.4003 35.3793 15.472 35.3906 15.5436C35.4227 15.7547 35.4472 15.9696 35.4642 16.1864C35.4793 16.405 35.4887 16.6237 35.4887 16.8461Z" fill="#666666"/>
<path d="M22.7194 16.111C22.793 16.111 22.8496 16.111 22.9043 16.111C23.8837 16.111 24.863 16.1166 25.8424 16.1091C26.5085 16.1053 26.9991 15.7943 27.3161 15.21C27.3369 15.1704 27.352 15.1289 27.3765 15.0667C27.0821 15.0667 26.8104 15.0667 26.5387 15.0667C25.3819 15.0667 24.2271 15.0667 23.0704 15.0667C22.8062 15.0667 22.7194 14.98 22.7175 14.718C22.7175 14.505 22.7175 14.292 22.7175 14.0771C22.7175 13.8019 22.7987 13.7189 23.0742 13.7189C24.4441 13.7189 25.8141 13.7189 27.1821 13.7189C27.2369 13.7189 27.2916 13.7189 27.3727 13.7189C27.3482 13.6586 27.335 13.6115 27.3123 13.57C26.9991 12.997 26.516 12.6841 25.8631 12.6746C24.8744 12.6633 23.8856 12.6709 22.8968 12.6709C22.8421 12.6709 22.7873 12.6709 22.727 12.6709C22.727 12.1261 22.727 11.5945 22.727 11.0536C22.7817 11.0536 22.827 11.0536 22.8741 11.0536C25.5008 11.0536 28.1294 11.0536 30.7561 11.0536C31.0203 11.0536 31.1071 11.1403 31.1089 11.4023C31.1089 11.6209 31.1108 11.8377 31.1089 12.0564C31.1071 12.309 31.0184 12.4013 30.7674 12.4013C30.0711 12.4013 29.3748 12.4013 28.6785 12.4013C28.6294 12.4013 28.5804 12.4013 28.5011 12.4013C28.7917 12.816 28.971 13.2439 29.0653 13.717C29.1597 13.717 29.2465 13.717 29.3352 13.717C29.822 13.717 30.3108 13.7152 30.7976 13.717C31.007 13.717 31.1071 13.8132 31.1089 14.0205C31.1127 14.2656 31.1127 14.5125 31.1089 14.7576C31.1052 14.9649 31.0033 15.0629 30.7976 15.0629C30.273 15.0648 29.7484 15.0629 29.2238 15.0629C29.1729 15.0629 29.122 15.0629 29.088 15.0629C28.5596 16.9215 27.3293 17.7886 25.3989 17.7358C25.4461 17.7867 25.482 17.8244 25.5178 17.8621C26.9481 19.2928 28.3804 20.7217 29.8107 22.1524C29.8654 22.207 29.9258 22.2636 29.9654 22.3296C30.0541 22.4785 29.973 22.6312 29.7994 22.6312C29.0993 22.6349 28.3973 22.6349 27.6973 22.6293C27.6463 22.6293 27.5878 22.5878 27.5482 22.5501C25.965 20.9705 24.3818 19.3909 22.8006 17.8094C22.7647 17.7735 22.7213 17.7189 22.7213 17.6718C22.7175 17.1609 22.7194 16.6463 22.7194 16.111Z" fill="white"/>
</svg>
